<!-- Exported by Character Map UWP -->
<svg height="100%" viewBox="128 0 768 1024" width="100%" xmlns="http://www.w3.org/2000/svg" xmlns:xlink="http://www.w3.org/1999/xlink">
  <path d="M128,265.5C128,236.833 130.833,209.667 136.5,184C142.167,158.333 151.333,134.917 164,113.75C176.667,92.5834 193.083,73.9167 213.25,57.75C233.417,41.5834 257.833,28.8334 286.5,19.5C299.5,15.1667 312.833,10.8334 326.5,6.5C340.167,2.16669 354,0 368,0C380.333,0 392.333,1.83337 404,5.5C415.667,9.16669 426.5,14.25 436.5,20.75C446.5,27.25 455.5,35.1667 463.5,44.5C471.5,53.8334 478,64.1667 483,75.5C490,91.5 496.917,107.167 503.75,122.5C510.583,137.833 517.5,153.5 524.5,169.5C533.833,190.167 538.5,212 538.5,235C538.5,252 536.333,267.333 532,281C527.667,294.667 521.75,307.417 514.25,319.25C506.75,331.083 497.917,342.25 487.75,352.75C477.583,363.25 466.667,373.833 455,384.5C449.667,389.5 444.083,394.417 438.25,399.25C432.417,404.083 427.167,409.167 422.5,414.5C420.5,416.833 419.25,419.417 418.75,422.25C418.25,425.083 418,427.833 418,430.5C418,437.5 420.25,447.667 424.75,461C429.25,474.333 435.167,489 442.5,505C449.833,521 458.167,537.417 467.5,554.25C476.833,571.083 486.417,586.333 496.25,600C506.083,613.667 515.75,624.833 525.25,633.5C534.75,642.167 543.167,646.5 550.5,646.5C551.167,646.5 551.75,646.417 552.25,646.25C552.75,646.083 553.333,646 554,646L683,606C692,603 701.167,601.5 710.5,601.5C725.833,601.5 740.25,605 753.75,612C767.25,619 778.333,628.833 787,641.5L872,762C888,784.667 896,809.667 896,837C896,852 894.083,865.167 890.25,876.5C886.417,887.833 881.083,898.333 874.25,908C867.417,917.667 859.583,926.833 850.75,935.5C841.917,944.167 832.5,953.167 822.5,962.5C801.5,982.167 778.25,997.333 752.75,1008C727.25,1018.67 700,1024 671,1024C642.667,1024 615.333,1018.67 589,1008C552,993 517.5,973.083 485.5,948.25C453.5,923.417 423.667,895.75 396,865.25C368.333,834.75 342.833,802.417 319.5,768.25C296.167,734.083 275,700.167 256,666.5C239,636.5 222.75,605.333 207.25,573C191.75,540.667 178.167,507.5 166.5,473.5C154.833,439.5 145.5,405.083 138.5,370.25C131.5,335.417 128,300.5 128,265.5ZM832,837C832,822.667 828,810 820,799L734.5,678.5C728.5,669.833 720.5,665.5 710.5,665.5C707.833,665.5 705,666 702,667L573,707C565.667,709.333 557.667,710.5 549,710.5C537.333,710.5 526.083,707.833 515.25,702.5C504.417,697.167 494.5,690.833 485.5,683.5C476.833,676.833 467.667,667.417 458,655.25C448.333,643.083 438.583,629.417 428.75,614.25C418.917,599.083 409.5,583 400.5,566C391.5,549 383.5,532.167 376.5,515.5C369.5,498.833 363.917,483.083 359.75,468.25C355.583,453.417 353.5,440.5 353.5,429.5C353.5,414.833 356.5,402.083 362.5,391.25C368.5,380.417 376,370.333 385,361C394,351.667 403.667,342.833 414,334.5C424.333,326.167 434,317.25 443,307.75C452,298.25 459.5,287.667 465.5,276C471.5,264.333 474.5,250.833 474.5,235.5C474.5,221.833 471.667,208.5 466,195.5L424.5,101.5C419.833,90.5001 412.25,81.5001 401.75,74.5C391.25,67.5001 380,64.0001 368,64C357.333,64.0001 346.667,65.9167 336,69.75C325.333,73.5834 315.167,77.1667 305.5,80.5C283.833,87.8334 265.75,97.5 251.25,109.5C236.75,121.5 225.167,135.5 216.5,151.5C207.833,167.5 201.583,185 197.75,204C193.917,223 192,243.167 192,264.5C192,296.5 195.333,328.667 202,361C208.667,393.333 217.5,425.25 228.5,456.75C239.5,488.25 252.25,519 266.75,549C281.25,579 296.333,607.667 312,635C329,665.333 348.083,696.167 369.25,727.5C390.417,758.833 413.5,788.667 438.5,817C463.5,845.333 490.583,871 519.75,894C548.917,917 580,935.167 613,948.5C632,956.167 651.333,960 671,960C686.333,960 700.417,958 713.25,954C726.083,950 738.167,944.5 749.5,937.5C760.833,930.5 771.667,922.417 782,913.25C792.333,904.083 802.5,894.167 812.5,883.5C818.833,876.833 823.667,869.75 827,862.25C830.333,854.75 832,846.333 832,837Z" fill="#FFFFFF" fill-opacity="1">
  </path>
</svg>